<svg xmlns="http://www.w3.org/2000/svg" viewBox="0 0 175 175">
  <style>/* <![CDATA[ */.mono{font-family:"Fira Mono";font-size:3px}.math{font-family:"C059";font-size:9px}.blue{fill:#004bbf}/* ]]> */</style>
  <text x="84.18" y="16.61" class="math" style="font-size:10px">&#x03C0;<tspan class="mono">ORDER_ID,PRICE-COST,DAYS_TO_PROCESS</tspan></text>
  <path fill="none" d="M89.44 20.25c-.62 6.96-.07 13.97.26 20.93.41 8.8.5 17.61.58 26.42.02 3.84.06 7.67.38 11.49.08 1.35.26 2.7.24 4.05l-4.95 2.48c.19-1.35-.08-2.73-.04-4.08-.08-3.95.14-7.89.24-11.84.2-8.87.42-17.76-.1-26.64-.47-6.76-1.05-13.53-1.55-20.3l4.94-2.51z"/>
  <path fill="none" stroke="#000" stroke-linecap="round" stroke-linejoin="round" stroke-width=".5" d="M88.37 17.98l.07 18.27"/>
  <text x="83.62" y="85.05" class="math">&#x22C8;<tspan class="mono">O.CUSTOMER_ID=C.CUSTOMER_ID</tspan></text>
  <path fill="none" stroke="#000" stroke-linecap="round" stroke-linejoin="round" stroke-width=".5" d="M88.37 59.91l.07 18.27"/>
  <text x="124.24" y="108.9" class="math">&#x03C1;<tspan class="mono">C</tspan></text>
  <path fill="none" stroke="#000" stroke-linecap="round" stroke-linejoin="round" stroke-width=".5" d="M126.93 112.03l.07 18.26"/>
  <g transform="translate(7.87 8.92)">
    <rect width="40.57" height="7.5" x="99.02" y="122.27" class="blue" rx="2.5" ry="2.5"/>
    <text x="101.31" y="128.31" fill="#FFF" class="mono" style="font-size:6.6px">CUSTOMERS</text>
  </g>
  <text x="44.62" y="109.57" class="math">&#x22C8;<tspan class="mono">O.PRODUCT_ID=P.PRODUCT_ID</tspan></text>
  <path fill="none" stroke="#000" stroke-linecap="round" stroke-linejoin="round" stroke-width=".5" d="M88.5 87.05l-38 15.44m75.8.51L88.5 87.05"/>
  <text x="24.44" y="134.78" class="math">&#x03C1;<tspan class="mono">O</tspan></text>
  <path fill="none" stroke="#000" stroke-linecap="round" stroke-linejoin="round" stroke-width=".5" d="M26.99 137.7l.07 18.27"/>
  <g transform="translate(7.02 9.56)">
    <rect width="27.94" height="7.5" x="6.23" y="147.29" class="blue" rx="2.5" ry="2.5"/>
    <text x="8.26" y="153.33" fill="#FFF" class="mono" style="font-size:6.6px">ORDERS</text>
  </g>
  <text x="68.28" y="134.98" class="math">&#x03C1;<tspan class="mono">P</tspan></text>
  <path fill="none" stroke="#000" stroke-linecap="round" stroke-linejoin="round" stroke-width=".5" d="M71.33 137.7l.07 18.27"/>
  <g transform="translate(7.7 9.56)">
    <rect width="36.29" height="7.5" x="46.39" y="147.29" class="blue" rx="2.5" ry="2.5"/>
    <text x="48.37" y="153.33" fill="#FFF" class="mono" style="font-size:6.6px">PRODUCTS</text>
  </g>
  <path fill="none" stroke="#000" stroke-linecap="round" stroke-linejoin="round" stroke-width=".5" d="M27.25 129.15l22.04-18.42m0 0l22.04 18.42"/>
  <g class="math" style="font-size:5px">
    <text x="85.5" y="42.35" style="font-size:9px">&#x03C3;<tspan class="mono">P.CATEGORYNAME=&#x0027;Accessories&#x0027;</tspan></text>
    <text x="89.1" y="46.18">&#x2227;<tspan class="mono">O.CHANNEL=&#x0027;Internet&#x0027;</tspan></text>
    <text x="89.1" y="50.01">&#x2227;<tspan class="mono">C.GENDER=&#x0027;Male&#x0027;</tspan></text>
    <text x="89.1" y="53.84">&#x2227;<tspan class="mono">C.INCOME_LEVEL=&#x0027;high&#x0027;</tspan></text>
    <text x="89.1" y="57.85">&#x2227;<tspan class="mono">O.DAYS_TO_PROCESS=0</tspan></text>
  </g>
</svg>

